<svg id="fd7a6972-1585-4d38-b13a-cbcacbb4c32e" data-name="contract" xmlns="http://www.w3.org/2000/svg" viewBox="0 0 100 36"><title>logo-azoom</title><path d="M66,18.2a1.9,1.9,0,0,1-1.6-1.1H55a1.7,1.7,0,0,1-3.2,0H45.4a8.1,8.1,0,0,0,8,7.4,7.9,7.9,0,0,0,6.3-3.1A8,8,0,0,0,74,17.1H67.6A1.7,1.7,0,0,1,66,18.2Z" style="fill:#024387"/><polygon points="42 17.1 34.1 17.1 23.3 33.6 23.3 33.6 42.9 33.6 47.3 26.9 35.6 26.9 42 17.1" style="fill:#024387"/><polygon points="25.8 26.8 25.8 17.1 14.3 17.1 19.1 9.8 19.1 15.9 25.8 15.9 25.8 2.4 15.9 2.4 2 23.8 2 23.8 0 26.8 7.9 26.8 9.9 23.8 19.1 23.8 19.1 26.8 25.8 26.8" style="fill:#024387"/><polygon points="47.2 9.2 47.2 9.2 27 9.2 27 15.9 42.8 15.9 47.2 9.2" style="fill:#024387"/><rect x="84.2" y="17.1" width="6.8" height="7.44" style="fill:#024387"/><rect x="93.2" y="17.1" width="6.8" height="7.44" style="fill:#024387"/><path d="M97.3,9.2h0A6.8,6.8,0,0,0,91,13.4V9.2H88.3a6.9,6.9,0,0,0-6.4,4.2V9.2H75.2v6.7H100V9.2Z" style="fill:#024387"/><path d="M66,8.5a8.1,8.1,0,0,0-6.3,3.1,7.9,7.9,0,0,0-6.3-3.1,8.1,8.1,0,0,0-8,7.4h6.4a1.7,1.7,0,0,1,3.2,0h9.4A1.9,1.9,0,0,1,66,14.8a1.7,1.7,0,0,1,1.6,1.1H74A8,8,0,0,0,66,8.5Z" style="fill:#024387"/><rect x="75.2" y="17.1" width="6.8" height="7.44" style="fill:#024387"/></svg>
