<svg id="aacb659e-b4b2-4dba-9c86-327b4e216c61" data-name="icon" xmlns="http://www.w3.org/2000/svg" viewBox="0 0 100 14"><defs><style>.c3007ee7-86f8-48ef-b8ea-cc26d8ffce19{fill:#fff;}</style></defs><title>parts</title><path class="c3007ee7-86f8-48ef-b8ea-cc26d8ffce19" d="M53.37,3H63.2v.26c0,1-.37,1.38-3.31,3l-.15.08.82,1.42.18-.1C63.58,6,64.88,5.26,64.88,3.21V1.39H53.37Z"/><path class="c3007ee7-86f8-48ef-b8ea-cc26d8ffce19" d="M57.4,3.81c0,5.54-.24,6-2.87,9l-.11.13L55.69,14l.23-.27c2.49-2.93,3.16-3.72,3.16-9.91Z"/><rect class="c3007ee7-86f8-48ef-b8ea-cc26d8ffce19" x="75.6" y="0.01" width="1.33" height="2.91"/><rect class="c3007ee7-86f8-48ef-b8ea-cc26d8ffce19" x="77.9" y="0.03" width="1.33" height="2.91"/><path class="c3007ee7-86f8-48ef-b8ea-cc26d8ffce19" d="M72.55,8.23a7.63,7.63,0,0,0,2.2-5.36V1.42H66.46V3h6.61c0,2.67-1.21,4.37-7.8,9.3l-.14.11,1,1.3.13-.09a54.78,54.78,0,0,0,5.1-4.19,43.21,43.21,0,0,1,3.84,4.17l.21.25,1.31-1-.25-.31A46.73,46.73,0,0,0,72.55,8.23Z"/><rect class="c3007ee7-86f8-48ef-b8ea-cc26d8ffce19" x="77.23" y="6.17" width="10.84" height="1.61"/><path class="c3007ee7-86f8-48ef-b8ea-cc26d8ffce19" d="M96.76,6.26,95.23,7l2.28,5.09H90.09a86.49,86.49,0,0,0,4-10.51l0-.17L92.48.93l0,.16a86.43,86.43,0,0,1-4.68,12.15l-.12.24H100Z"/><path class="c3007ee7-86f8-48ef-b8ea-cc26d8ffce19" d="M5,8.14,4.23,9c-.11-.29-.41-.9-.88-1.83v6.69H2.13V7.93A13.48,13.48,0,0,1,.62,11.28,6.79,6.79,0,0,0,0,10,8.13,8.13,0,0,0,1.16,7.92,17,17,0,0,0,2,5.21H.29V4.05H2.13V1.53H3.35V4.05H5V5.21H3.35v.42C3.8,6.24,4.34,7.07,5,8.14Zm7.37.21H10a11.42,11.42,0,0,0,1.2,2.16,8,8,0,0,0,1.48,1.64,3.48,3.48,0,0,0-.91,1A11.76,11.76,0,0,1,9.37,9.31v4.56H8.15V9.4A10.2,10.2,0,0,1,5.1,13.24a3.75,3.75,0,0,0-.84-1,7.89,7.89,0,0,0,1.82-1.65A10,10,0,0,0,7.5,8.35H5.07V7.21H8.15V5.08H6.66a7.21,7.21,0,0,1-.84,1.81,6.16,6.16,0,0,0-1-.63,9.66,9.66,0,0,0,1.33-4.1l1.16.19c-.06.39-.16.92-.32,1.59H8.15V1.53H9.37V3.94H12V5.08H9.37V7.21h3Z"/><path class="c3007ee7-86f8-48ef-b8ea-cc26d8ffce19" d="M25.44,5.13H21.65a24.79,24.79,0,0,0,.89,5.36c.44,1.39.95,2.09,1.52,2.09.16,0,.29-.19.37-.57a13.43,13.43,0,0,0,.19-1.91,2.78,2.78,0,0,0,1.1.71,6.56,6.56,0,0,1-.53,2.44A1.34,1.34,0,0,1,24,13.9a1.94,1.94,0,0,1-1.44-.68,5.25,5.25,0,0,1-1.08-1.9,17.93,17.93,0,0,1-.69-2.76,31.22,31.22,0,0,1-.4-3.43H13.5V3.91h6.74c0-1,0-1.79,0-2.33h1.36c0,.71,0,1.49,0,2.33h3.87Zm-8,3v3.35c.26,0,1.17-.22,2.71-.54l.09,1.13-2.14.48-2.41.54-1.81.39-.37-1.26,1.4-.25,1.28-.24V8.14H14V6.93h5.85V8.14Zm4.8-5.87.81-.69A9.6,9.6,0,0,1,25,3.13l-.88.78A9.32,9.32,0,0,0,22.27,2.27Z"/><path class="c3007ee7-86f8-48ef-b8ea-cc26d8ffce19" d="M29,6.75v-1a16.63,16.63,0,0,1-2.34,1.4,3.34,3.34,0,0,0-.73-1,14.08,14.08,0,0,0,3.2-2.07,11,11,0,0,0,2.3-2.56h1.29a12.72,12.72,0,0,0,2.6,2.64A13.11,13.11,0,0,0,38.47,6a5.15,5.15,0,0,0-.79,1.13A17.54,17.54,0,0,1,35.3,5.7v1ZM26.68,9.32V8.15h11V9.32H31.57c-.59,1.2-1.07,2.13-1.43,2.78L32.73,12,35,11.9a18.23,18.23,0,0,0-1.57-1.59l1.08-.58a19.43,19.43,0,0,1,1.79,1.74,12.22,12.22,0,0,1,1.34,1.72l-1.15.71a8.87,8.87,0,0,0-.59-.88c-3.64.17-6.61.31-8.91.4l-.17-1.22,2-.06A21.57,21.57,0,0,0,30,9.32Zm2.57-3.73h5.89a12.49,12.49,0,0,1-3-2.85A12.47,12.47,0,0,1,29.25,5.59Z"/><path class="c3007ee7-86f8-48ef-b8ea-cc26d8ffce19" d="M44.68,9.07l-.76,1q-.48-.58-1.47-1.59v5.36H41.21v-5a11,11,0,0,1-1.88,1.51,3.93,3.93,0,0,0-.61-1.15A10.56,10.56,0,0,0,41,7.48a10.77,10.77,0,0,0,1.76-2.35H39.18V4h2V1.52h1.24V4h.93l.21,0,.71.47a12.55,12.55,0,0,1-1.67,2.89C43.38,7.93,44.07,8.51,44.68,9.07Zm3.75,3.18h3v1.24H43.89V12.25h3.26V7H44.43V5.76h2.72V1.62h1.28V5.76h2.72V7H48.43Z"/></svg>