<svg id="f7414bbd-daef-45e9-8e7f-8972ad7bc2cc" data-name="pmark" xmlns="http://www.w3.org/2000/svg" viewBox="0 0 200 200"><title>pmark</title><path d="M120.1,134.7c-24.1,14.9-52.7,12.6-63.8-5.3C52,122.5,50.9,114,53,104.9c3.1-13.3,13.2-26.4,27.1-35s30-11.7,43.3-8.6c9.1,2.1,16.2,6.9,20.5,13.9,11,17.9.4,44.5-23.8,59.5Zm4.5-78.3c-14.9-3.5-32.1-.2-47.2,9.2S51.5,88.9,48,103.7c-2.4,10.5-1,20.3,4,28.4,12.5,20.2,44.3,23.3,70.8,6.9s37.9-46.2,25.4-66.5c-5-8.1-13.2-13.7-23.6-16.1Z" style="fill:#004098"/><path d="M61.3,123.1c10.5,0,60.8-18.9,59.7-33.2s-30.1.1-39.4,4.7l1.2-11.1c6.3-5.1,47-22.7,53.7-1.8,8.3,25.7-53.2,43-75.2,41.4Z" style="fill:#004098"/><path d="M80.6,100.3a10,10,0,1,0-10-10,9.9,9.9,0,0,0,10,10Z" style="fill:#8d93c8"/><path d="M88,139.6v-27a7.4,7.4,0,0,0-14.7,0v24.9A44,44,0,0,0,88,139.6Z" style="fill:#8d93c8"/><path d="M41.8,91a10.4,10.4,0,0,1-.5,1.2,6.5,6.5,0,0,0-.6,3.3H38.8a10.8,10.8,0,0,1,1.1-5.1l1.9.7Zm.9,4.4a1.7,1.7,0,0,0,.8.9c.6.2,1-.4,1.4-1.5a22.5,22.5,0,0,0,.8-2.4l1.9.7a4,4,0,0,1-.5,1.5c-.6,1.7-1,2.6-1.7,3.1a2.1,2.1,0,0,1-2.2.4,3.7,3.7,0,0,1-1.9-1.8l1.4-.9Zm-8.1-.5,1.3.7,1-2.6,1.8.8-1,2.7a65.5,65.5,0,0,1,7,4.6l-1.3,1.6A38.9,38.9,0,0,0,37,98.3l-.6,1.4L34.6,99l.6-1.6-1.4-.7.8-1.8Z" style="fill:#8d93c8"/><path d="M51,84.6l-.8-.5a16.9,16.9,0,0,0-4.1-1.9,8.1,8.1,0,0,0-3.1-.1l-.2-1.9c1.7-.3,3-.4,5.9.8A24.4,24.4,0,0,1,52,82.7l-1,1.9Zm-11.2.5a19.9,19.9,0,0,0,3.3,2.4,14.7,14.7,0,0,0,2.8,1.4c.4.1,1,.3,1.3-.1s0-.7-.2-1a11,11,0,0,0-1.2-1.6l1.7-.8c.8.9,2.7,3.1,1.7,4.7s-1.9,1-2.8.9a14.5,14.5,0,0,1-4.5-2l-3.3-2.3,1.2-1.6Z" style="fill:#8d93c8"/><path d="M50.4,69a23.4,23.4,0,0,1,2,1.5l1-1.3L55,70.4l-1.1,1.4c2,1.8,3.1,2.9,1.7,4.5a7.2,7.2,0,0,1-1.2,1.1l-1.5-1.2,1.1-.9c.4-.5,0-.9-1.3-2l-2.2,2.6,2.2,1.9c1.6,1.4,1.7,1.4,3.4-.6l2.2-2.7,1.6,1.3L58.1,78c-1.5,1.7-2.5,2.9-4,2.7s-1.1-.2-2.4-1.3l-2.4-2-1.1,1.3-1.5-1.2,1.1-1.4L46,74.6l1.3-1.5L49,74.6,51.1,72l-1.9-1.5L50.4,69Z" style="fill:#8d93c8"/><path d="M60.5,71.9A15.9,15.9,0,0,0,63.4,69a3.2,3.2,0,0,0,0-4.4,3,3,0,0,0-1.5-.9,2.2,2.2,0,0,0-1.9.6,15.7,15.7,0,0,0-2.4,3l-1.3,2-1.9-1.5a12.5,12.5,0,0,0,1.5-1.9,24.5,24.5,0,0,1,2.9-3.3c1.8-1.6,4.3-1.4,6.1.7A5.1,5.1,0,0,1,66,68.7a15.2,15.2,0,0,1-3.8,4.5l-1.7-1.3Z" style="fill:#8d93c8"/><path d="M71.4,59.7a3.2,3.2,0,0,0,.4,1.6c.5.8,1.4.4,2.3-.3a17,17,0,0,0,2.3-1.7l1.2,1.8a9.3,9.3,0,0,1-1.8,1.3c-1.6,1.1-3.8,2.5-5.3.2a5,5,0,0,1-.8-2.6l1.7-.3Zm.5-6.7,1.2,1.8L68,58.2l-1.2-1.8L71.9,53Zm-6.5,3.5a44.8,44.8,0,0,0,3.2,5.6,22.5,22.5,0,0,0,2.9,3.7l-1.6,1.3a35.8,35.8,0,0,1-2.8-3.7,49.9,49.9,0,0,1-3.4-5.9l1.7-1Z" style="fill:#8d93c8"/><path d="M75.7,49.9l2.9,6.3c.8,1.5,1.5,2.2,2.9,1.5s1.8-3.5,1.2-5.2h2a7.2,7.2,0,0,1,.2,4.3,4.3,4.3,0,0,1-2.5,2.7c-3.2,1.6-4.5-.5-5.7-2.9-.5-.9-2.4-5-2.9-5.8l1.9-.9Z" style="fill:#8d93c8"/><path d="M90.4,52.6h-1c-.4.2-1.1.6-.9,1.3s1.1.4,1.4.3.8-.8.7-1.1l-.2-.6ZM88,45.7l-.4-1,1.8-.6.4,1,3.4-1.2.6,1.8-3.4,1.2.3.9,3.2-1.1.6,1.7-3.2,1.1.4,1.3a12.8,12.8,0,0,1,4,1.1l-.5,2.2a14.2,14.2,0,0,0-2.7-1.2v.3a1.4,1.4,0,0,1-.1,1.5A2.7,2.7,0,0,1,90.7,56c-2,.7-3.4,0-3.9-1.4s.4-2.9,2.3-3.5l.7-.2-.3-.8-3.8,1.3-.6-1.7,3.8-1.3-.3-.9-4.1,1.4-.6-1.8L88,45.7Z" style="fill:#8d93c8"/><path d="M101.6,47.3c-.1-.2-.3-.9-1.1-.7s-.9.2-.7,1.3a1,1,0,0,0,1.1,1,.9.9,0,0,0,.7-1.2v-.4Zm-1.4-6.1,2-.3.2,1.2,3.1-.6.4,1.9-3.1.6.5,2.8a9.3,9.3,0,0,1,.6,1.8,3.6,3.6,0,0,1-1.4,3.7,6.7,6.7,0,0,1-3.1,1.2l-.9-1.7a10.1,10.1,0,0,0,2.4-.7c1-.5,1-.9,1.1-1.3a1.6,1.6,0,0,1-1,.6,2.6,2.6,0,0,1-3-2.2,2.7,2.7,0,0,1,2.1-3.2,3.3,3.3,0,0,1,1,0l-.2-.7-5.4,1.1-.4-1.9,5.4-1.1-.3-1.2Z" style="fill:#8d93c8"/><path d="M118.1,34.8c-.3,0-.5.4-.5.9s.3,1,.6,1,.5-.5.5-1-.2-.9-.6-.9Zm.1,3.2c-.8,0-1.4-1-1.4-2.2s.6-2.3,1.3-2.3,1.4,1,1.4,2.2-.6,2.3-1.3,2.3Zm-1.8-2.3c.1,2.4,1,2.9,2,2.9-.3,4.9-1.4,11.2-7.7,13.4l-.9-3c4.9-1.3,6.2-5.3,6.5-10.2h-7.4V35.8Z" style="fill:#004098"/><path d="M130.6,41.6c-1.4,6.5-3.7,10.8-9.9,10.6V49.1c4.1.4,6-1.2,7.2-5l-7.5-1.2.5-2.9,9.7,1.6Zm0-4.9-.4,2.8-8.1-1.3.4-2.9,8.1,1.4Z" style="fill:#004098"/><path d="M135,55.7l-1.9-.8,2.9-7.6a19.4,19.4,0,0,1-4.8,1.4V45.8a17.3,17.3,0,0,0,6.2-2,25.1,25.1,0,0,0,5.5-3.9l.9,2.4a35.3,35.3,0,0,1-5.1,3.7L135,55.7Z" style="fill:#004098"/><path d="M154.5,50.5c.8-1.7,1-2.3,1.3-3l1,.3a21.4,21.4,0,0,1-1.3,2.9l-1-.2Zm-1.5-.7,1.4-3,1,.3a20.8,20.8,0,0,1-1.3,3l-1.1-.3Zm.6-2.5a12.6,12.6,0,0,1-1.3,2.6h.2a33.4,33.4,0,0,0-4.3,10.8l-2.8.9c.8-4.1,2.7-8.2,6.9-14.9l1.3.5ZM139,54.4a17.8,17.8,0,0,0,5.2-4.3,62.5,62.5,0,0,0,4.8-5.9l1.4,1.3c-5.4,7-8.1,10-11.5,11.8V54.4Z" style="fill:#004098"/><path d="M149.3,60.7c2.8,2.6,5.3,3.9,13.4-.6v2.3c-8.7,4.6-12.4,3.8-15.9.9l2.4-2.6Zm4.7-.1a11.8,11.8,0,0,0-.4-4.2l2.5-1.2a11.8,11.8,0,0,1,.6,4.1L154,60.6Zm4.4-2.3a11.6,11.6,0,0,0-.6-4.2l2.5-1.1a12.4,12.4,0,0,1,.8,4.1l-2.7,1.2Z" style="fill:#004098"/><polygon points="166.2 75.9 163.1 77.1 159.1 67.4 162.1 66.1 166.2 75.9 166.2 75.9" style="fill:#004098"/><path d="M65.1,156.3h.3a2,2,0,0,0,2.2-2.1h1.5v12.1H67.3V158H65.1v-1.7Z" style="fill:#004098"/><path d="M73.7,160.3c0,4.2,1.1,6.2,3.2,6.2s3.2-2,3.2-6.2-1-6.2-3.2-6.2-3.2,1.9-3.2,6.2Zm1.9,0c0-3.2.3-4.3,1.3-4.3s1.3,1.1,1.3,4.3-.3,4.3-1.3,4.3-1.3-1.2-1.3-4.3Z" style="fill:#004098"/><path d="M87.4,162.7c0,.8-.3,1.9-1.3,1.9s-1.3-.8-1.3-2,.6-1.8,1.3-1.8,1.3,1,1.3,1.9Zm1.9-.1a3.1,3.1,0,0,0-1.4-3,3.2,3.2,0,0,0-1.8-5.6c-1.6,0-2.9,1.2-2.9,3.3a2.7,2.7,0,0,0,1.1,2.4,3.5,3.5,0,0,0-1.4,3.1c0,1.7.8,3.7,3.2,3.7s3.2-2.4,3.2-3.9Zm-3.2-3.7c-.8,0-1.2-.8-1.2-1.5a1.3,1.3,0,0,1,1.3-1.5c.6,0,1.1.6,1.1,1.5s-.5,1.5-1.2,1.5Z" style="fill:#004098"/><path d="M92.2,158.6c0-3.9,2.1-4.3,2.9-4.3s3.1,1.4,3.1,3.8a5,5,0,0,1-1.8,3.9c-1.2,1.2-1.9,1.7-2.1,2.3h3.9v2H92.1a5.9,5.9,0,0,1,2.1-4.7c1.6-1.6,2.3-2.2,2.3-3.6s-.4-1.7-1.3-1.7-1.3,1.4-1.3,2.3Z" style="fill:#004098"/><path d="M107.7,161.9h-1v-7.6h-2l-3.4,7.4v2.1h3.6v2.7h1.8v-2.7h1v-1.9Zm-5.1,0,2.3-5.3h0v5.3Z" style="fill:#004098"/><path d="M116.9,161.9h-1v-7.6h-2.1l-3.3,7.4v2.1h3.6v2.7h1.8v-2.7h1v-1.9Zm-5.1,0,2.3-5.3h0v5.3Z" style="fill:#004098"/><path d="M126.1,161.9h-1v-7.6H123l-3.4,7.4v2.1h3.7v2.7h1.8v-2.7h1v-1.9Zm-5.1,0,2.3-5.3h0v5.3Z" style="fill:#004098"/><path d="M130.7,158.9a2.2,2.2,0,0,1,1.6-.7c1.3,0,2.8,1.1,2.8,3.9s-.6,4.4-3.3,4.4-2.9-1.1-3-3.6h1.8c.1,1,.5,1.7,1.3,1.7s1.4-1,1.4-2.3-.4-2.2-1.4-2.2-.8,0-1.2.9h-1.6l.6-6.7h5.1v2H131l-.3,2.7Z" style="fill:#004098"/></svg>